<svg xmlns="http://www.w3.org/2000/svg" viewBox="0 0 48 48" width="48" height="48">
  <defs>
    <linearGradient id="g1" x1="0" x2="1" y1="0" y2="1">
      <stop offset="0%" stop-color="#fff" stop-opacity="0"/>
      <stop offset="100%" stop-color="#fff" stop-opacity="0.1"/>
    </linearGradient>
  </defs>
  <path fill="#EA4335" d="M24 9.5c3.9 0 7.1 1.4 9.3 3.2l6.9-6.9C35.9 2 30.4 0 24 0 14.7 0 6.8 5.6 2.7 13.6l7.9 6.1C12.9 14.2 18 9.5 24 9.5z"/>
  <path fill="#34A853" d="M46.7 24.5c0-1.7-.1-3.4-.5-5H24v9.5h12.8c-.6 3.1-2.6 5.6-5.6 7.1l8.6 6.6C44.6 38 47 31.9 47 24.5z"/>
  <path fill="#4A90E2" d="M9.7 29.7C8.9 27.8 8.4 25.7 8.4 23.5 8.4 21.3 8.9 19.2 9.7 17.3l-7.9-6.1C.5 14.6 0 19 0 23.5c0 4.6.5 9 1.8 11.6l7.9-5.4z"/>
  <path fill="#FBBC05" d="M24 48c6.4 0 11.9-2 16-5.7l-7.9-6.1c-2.2 1.5-5 2.4-8.1 2.4-6 0-11.1-4.7-12.7-10.9l-7.9 6.1C6.8 42.4 14.7 48 24 48z"/>
  <circle cx="24" cy="24" r="22" fill="none" stroke="rgba(0,0,0,0.05)" stroke-width="2"/>
</svg>
